<?xml version="1.0" encoding="UTF-8" standalone="no"?>
<!-- Created with Inkscape (http://www.inkscape.org/) -->

<svg
   xmlns:dc="http://purl.org/dc/elements/1.1/"
   xmlns:cc="http://creativecommons.org/ns#"
   xmlns:rdf="http://www.w3.org/1999/02/22-rdf-syntax-ns#"
   xmlns:svg="http://www.w3.org/2000/svg"
   xmlns="http://www.w3.org/2000/svg"
   xmlns:sodipodi="http://sodipodi.sourceforge.net/DTD/sodipodi-0.dtd"
   xmlns:inkscape="http://www.inkscape.org/namespaces/inkscape"
   width="210mm"
   height="297mm"
   viewBox="0 0 210 297"
   version="1.1"
   id="svg8"
   inkscape:version="0.92.3 (2405546, 2018-03-11)"
   sodipodi:docname="MicrongoLogo.svg"
   inkscape:export-filename="/home/suryadi/Projects/microngo/docs/_static/logo.png"
   inkscape:export-xdpi="50"
   inkscape:export-ydpi="50">
  <defs
     id="defs2" />
  <sodipodi:namedview
     id="base"
     pagecolor="#ffffff"
     bordercolor="#666666"
     borderopacity="1.0"
     inkscape:pageopacity="0.0"
     inkscape:pageshadow="2"
     inkscape:zoom="0.49497475"
     inkscape:cx="231.94367"
     inkscape:cy="715.4822"
     inkscape:document-units="mm"
     inkscape:current-layer="layer1"
     showgrid="false"
     inkscape:window-width="1366"
     inkscape:window-height="685"
     inkscape:window-x="0"
     inkscape:window-y="0"
     inkscape:window-maximized="1" />
  <metadata
     id="metadata5">
    <rdf:RDF>
      <cc:Work
         rdf:about="">
        <dc:format>image/svg+xml</dc:format>
        <dc:type
           rdf:resource="http://purl.org/dc/dcmitype/StillImage" />
        <dc:title></dc:title>
      </cc:Work>
    </rdf:RDF>
  </metadata>
  <g
     inkscape:label="Layer 1"
     inkscape:groupmode="layer"
     id="layer1">
    <path
       style="fill:#000000;stroke:#000000;stroke-width:0.66500002;stroke-miterlimit:4;stroke-dasharray:none"
       d="m 34.659628,122.43849 -1.05919,-1.51204 c -1.17463,-1.67685 -1.25192,-2.19932 -0.63783,-4.31171 0.23174,-0.79718 0.38039,-1.49036 0.33033,-1.54042 -0.0501,-0.0501 -0.87525,0.65563 -1.83376,1.5682 -3.22207,3.06762 -7.095795,5.21678 -11.060325,6.13631 -1.97291,0.45759 -4.08471,0.22764 -7.2007,-0.78407 -2.26415,-0.73514 -2.87455,-1.27238 -3.9009404,-3.43345 -1.32143,-2.78227 -1.63873,-3.63458 -1.80517,-4.84887 -0.13219,-0.9644 -0.0624,-1.27723 0.39307,-1.76206 1.74182,-1.85407 2.9777604,-8.68094 2.07655,-11.47004 -0.22802,-0.705679 -0.53139,-2.116499 -0.67415,-3.135139 -0.14277,-1.01865 -0.51607,-3.22131 -0.82956,-4.89479 -0.46275,-2.47022 -0.53716,-3.55579 -0.39548,-5.76962 0.32469,-5.07368 1.65529,-7.96857 5.2883604,-11.50548 2.24337,-2.184 2.39056,-2.39418 2.40878,-3.43959 0.0125,-0.72011 0.39571,-1.907889 1.08466,-3.362389 0.58589,-1.23693 1.22687,-2.72521 1.42441,-3.3073 0.19754,-0.58208 0.49342,-1.23692 0.65751,-1.455204 0.16409,-0.218281 0.56866,-0.932656 0.89904,-1.5875 0.63682,-1.262263 2.33626,-3.373181 3.87827,-4.817322 1.32092,-1.237085 1.95858,-2.371523 1.95858,-3.484438 v -0.963259 l 0.83513,0.798088 c 0.999495,0.955171 2.950995,1.583483 4.967585,1.599378 0.81033,0.0064 1.94958,0.204393 2.53166,0.440011 0.72672,0.294164 1.72157,0.410485 3.175,0.371229 1.84091,-0.04972 2.28902,0.03372 3.43959,0.64048 1.7508,0.923299 2.78384,1.158783 4.05984,0.92545 1.29865,-0.237475 2.71038,0.208242 3.65662,1.154482 0.37954,0.379537 0.88219,0.699859 1.11701,0.711825 1.99725,0.101779 3.86842,0.783531 5.00848,1.824815 0.47597,0.434734 1.40449,1.106346 2.06336,1.492473 0.65887,0.386127 1.45737,1.054592 1.77445,1.485482 0.31706,0.43089 1.08522,1.08237 1.707,1.44772 0.98663,0.57973 1.64761,1.29389 1.64761,1.78015 0,0.0823 -0.32742,0.15142 -0.7276,0.15354 -0.40019,0.002 -1.26339,0.19181 -1.91823,0.42154 -0.65485,0.22973 -1.89921,0.40899 -2.76526,0.39836 -0.86605,-0.0106 -2.02711,0.11624 -2.58012,0.28193 -0.76951,0.23055 -1.35643,0.22271 -2.50094,-0.0334 -0.82251,-0.18407 -2.43157,-0.321 -3.57569,-0.30428 -1.73762,0.0254 -2.29727,-0.0796 -3.39815,-0.63746 -1.98769,-1.00724 -5.41108,-2.0119 -7.55255,-2.21645 -1.48142,-0.14151 -2.15506,-0.35232 -3.00256,-0.93964 -0.60096,-0.41647 -1.16806,-0.68179 -1.26023,-0.58962 -0.0922,0.0922 0.25335,0.85399 0.76783,1.69295 0.86834,1.41597 2.07033,3.87832 2.8111,5.758699 0.46334,1.17612 1.9683,1.67996 5.10832,1.71019 3.42336,0.033 5.42035,0.67227 9.92809,3.17834 2.68094,1.49046 7.9336,7.55986 8.94145,10.33175 0.23675,0.65113 0.81092,3.04938 1.27594,5.32944 0.77038,3.77734 0.82984,4.41188 0.66946,7.14375 -0.21422,3.649109 -0.44073,5.829929 -0.7511,7.231519 -0.1289,0.58208 -0.30504,1.46169 -0.39142,1.95467 -0.0864,0.49298 -0.27154,1.11024 -0.41145,1.37167 -0.13992,0.26143 -0.25439,0.69611 -0.25439,0.96595 0,0.26984 -0.24495,0.96227 -0.54434,1.53875 -0.29938,0.57647 -0.84772,1.7625 -1.21853,2.63563 -1.16285,2.7381 -3.02246,6.32491 -3.60439,6.95214 -0.58811,0.6339 -1.10237,0.93912 -3.89316,2.31062 -3.15408,1.55005 -5.11393,2.06031 -7.40416,1.92773 l -2.0489,-0.11861 c -0.28534,0.13746 -4.86699,-1.28621 -6.68481,-3.44111 z m 14.41808,1.62319 c 2.91135,-1.12387 4.34602,-2.23153 5.84362,-4.51167 1.33081,-2.02619 1.6129,-2.74746 1.17934,-3.01541 -0.22201,-0.13721 -0.104,-0.61084 0.41674,-1.67261 0.39954,-0.81465 0.82604,-1.41963 0.94778,-1.34439 0.33157,0.20492 1.01593,-1.57027 0.72155,-1.87167 -0.36223,-0.37089 -0.29866,-0.67469 0.14119,-0.67469 0.22624,0 0.50311,-0.43241 0.66729,-1.04214 0.15435,-0.57317 0.51612,-1.77931 0.80395,-2.6803 0.28784,-0.90099 0.52333,-1.85375 0.52333,-2.11725 0,-0.2635 0.10898,-0.54644 0.24218,-0.62876 0.22933,-0.14173 0.36002,-1.27649 0.69489,-6.033589 0.13601,-1.93208 -0.13315,-4.3587 -0.68226,-6.15109 -0.65505,-2.13815 -1.44416,-4.3642 -1.97797,-5.57977 -0.79106,-1.80141 -3.19159,-5.00551 -4.78814,-6.39097 -0.71165,-0.61755 -1.65109,-1.4336 -2.08765,-1.81344 -0.43657,-0.37984 -1.21047,-0.90369 -1.7198,-1.16412 -0.50932,-0.26043 -1.15135,-0.72265 -1.42673,-1.02714 -0.27538,-0.30451 -1.28741,-0.94225 -2.24896,-1.41722 -1.6944,-0.83697 -1.85017,-0.86343 -5.05556,-0.85863 -2.82773,0.004 -3.48952,0.0884 -4.56406,0.58043 -0.69122,0.31652 -1.25677,0.52445 -1.25677,0.46206 0,-0.14695 -1.85497,0.91544 -2.79083,1.59839 -1.52349,1.11178 -2.50083,2.05309 -2.50083,2.40866 0,0.20321 -0.15632,0.36947 -0.34738,0.36947 -0.92808,0 -2.79405,2.87314 -4.114065,6.33466 -0.69382,1.81941 -0.85479,2.62897 -0.86808,4.36562 -0.0168,2.18669 0.76415,6.1833 1.46894,7.51812 0.20308,0.38462 0.753525,1.6206 1.223205,2.746629 1.47514,3.53656 3.17335,6.16317 5.74623,8.88766 0.61846,0.65491 1.12448,1.29018 1.12448,1.41173 0,0.12154 0.23061,0.4516 0.51248,0.73347 0.43724,0.43724 0.47088,0.64118 0.22912,1.38906 -0.15585,0.48212 -0.38647,1.08333 -0.51248,1.33601 -0.4153,0.83275 -0.22698,1.14061 0.28783,0.47057 0.74953,-0.97551 0.89321,-0.51595 0.28345,0.90657 -0.2947,0.68751 -0.53582,1.41873 -0.53582,1.62495 0,0.20622 -0.10791,0.37494 -0.23981,0.37494 -0.1319,0 -0.17755,0.23813 -0.10144,0.52917 0.0774,0.29585 0.008,0.52916 -0.15706,0.52916 -0.50619,0 -0.33177,0.48194 0.74578,2.06054 0.77722,1.13863 1.21682,1.53992 1.73382,1.5827 0.95708,0.0792 1.68565,0.4904 2.85904,1.61357 1.87761,1.79725 5.19584,1.85292 9.57946,0.16072 z m 1.51935,-1.89777 c 0.39247,-0.39246 0.80648,-0.62034 0.92003,-0.50639 0.22612,0.22692 -0.86317,1.21997 -1.3382,1.21997 -0.16247,0 0.0257,-0.32111 0.41817,-0.71358 z M 27.518228,82.859261 c 0.006,-0.48554 0.46888,-1.13661 0.66717,-0.93832 0.23134,0.23134 -0.11575,1.26905 -0.42447,1.26905 -0.13571,0 -0.24493,-0.14883 -0.2427,-0.33073 z m 25.45904,-1.69512 c -0.65791,-0.73864 -0.71298,-0.88456 -0.33378,-0.88456 0.28605,0 1.19799,1.27755 1.03108,1.44446 -0.0578,0.0578 -0.37155,-0.19419 -0.6973,-0.5599 z m -22.95722,-0.89696 c -0.0857,-0.13871 -0.0298,-0.25219 0.12434,-0.25219 0.15411,0 0.2802,-0.15784 0.2802,-0.35075 0,-0.70828 2.44686,-2.44928 2.97957,-2.12005 0.13167,0.0814 -0.0979,0.35345 -0.51019,0.60461 -0.41228,0.25115 -1.1925,0.88728 -1.73382,1.41361 -0.54133,0.52632 -1.05437,0.84347 -1.1401,0.70477 z m 20.59911,-0.43628 c -0.72895,-0.14197 -1.56546,-1.35294 -1.19233,-1.72607 0.1784,-0.1784 0.47628,-0.10755 0.90389,0.215 0.60589,0.45703 1.40514,1.73552 1.0372,1.65913 -0.0954,-0.0198 -0.43239,-0.0864 -0.74876,-0.14806 z M 22.619373,121.28216 c 1.15264,-0.33454 3.48891,-1.58075 4.787485,-2.55373 0.4503,-0.33739 0.91021,-0.61344 1.02202,-0.61344 0.19068,0 0.5835,-0.29731 2.94302,-2.22746 1.25549,-1.02703 2.07522,-2.78049 1.85318,-3.96409 -0.23665,-1.26143 -0.77359,-2.26693 -2.9151,-5.45898 -1.91843,-2.85953 -2.27172,-3.55816 -4.343845,-8.590099 -0.91706,-2.22696 -1.35288,-4.12008 -1.5703,-6.82098 -0.33455,-4.15597 0.63066,-7.28522 3.404765,-11.03839 1.20983,-1.63682 1.96962,-2.3536 4.30048,-4.05704 l 1.02591,-0.74975 -0.72671,-0.75852 c -1.2687,-1.32424 -4.61604,-2.63677 -6.724545,-2.63677 -0.65971,0 -0.9876,0.29825 -2.24547,2.04246 -1.48892,2.06462 -2.10544,3.38984 -2.38635,5.12954 -0.11527,0.71391 -0.6194,1.43652 -2.00129,2.86865 -1.01596,1.05289 -1.8472,2.06739 -1.8472,2.25445 0,0.18706 -0.16882,0.48021 -0.37514,0.65144 -0.31229,0.25918 -0.42772,0.054 -0.68898,-1.22437 -0.17261,-0.84464 -0.46917,-1.71431 -0.65903,-1.93259 -0.19639,-0.2258 -0.36272,-1.13817 -0.38587,-2.11666 -0.0224,-0.94589 -0.0521,-2.28534 -0.0661,-2.97657 -0.0428,-2.11911 -0.90389,-1.69024 -2.93993,1.46423 -0.92381,1.43126 -0.96151,1.56786 -0.58221,2.10939 0.50349,0.71884 0.51306,0.99045 0.0349,0.99045 -0.20386,0 -0.58823,0.52601 -0.85413,1.16891 -0.52755,1.27549 -1.0245404,1.36039 -0.7540404,0.12881 0.2831704,-1.28927 -0.32663,-0.86867 -0.79797,0.55039 -0.30005,0.90337 -0.45014,2.34143 -0.47636,4.56406 -0.0331,2.80505 0.0927,3.873 0.92744,7.87532 0.5311404,2.54662 1.0969204,5.510929 1.2572904,6.587359 0.34819,2.33721 0.38012,2.40056 1.11333,2.20881 0.48345,-0.12642 0.5404,-0.0706 0.36259,0.35557 -0.11602,0.27806 -0.27434,0.80112 -0.35182,1.16237 -0.0775,0.36124 -0.30029,0.81623 -0.49514,1.01108 -0.19485,0.19485 -0.35427,0.502 -0.35427,0.68256 0,0.18055 -0.26789,0.84227 -0.59531,1.47049 -0.32743,0.62823 -0.8501104,1.63286 -1.1615404,2.23251 l -0.56622,1.09029 0.74785,0.23189 0.7478504,0.23189 -0.5621204,0.7603 c -0.72622,0.98227 -1.07954,0.96852 -0.85947,-0.0335 0.10969,-0.4994 0.0684,-0.79375 -0.11127,-0.79375 -0.65014,0 -0.27147,1.93863 0.69094,3.53726 1.1469404,1.90516 2.9417304,4.40024 3.1652404,4.40024 0.086,0 0.008,-0.1786 -0.17303,-0.39688 -0.62817,-0.75689 0.27804,-0.43842 1.02364,0.35974 0.82146,0.87938 1.19466,1.01797 3.34198,1.24111 0.87313,0.0907 1.61547,0.19251 1.64965,0.22616 0.12334,0.12142 3.13679,-0.34399 4.17118,-0.64421 z m -1.71979,-0.65363 c 0.91285,-0.52183 1.63415,-0.51539 0.94162,0.008 -0.28247,0.21366 -0.75872,0.38424 -1.05833,0.37909 -0.49799,-0.009 -0.48798,-0.0418 0.11671,-0.3875 z m 10.318755,-5.95313 c 0,-0.14552 0.12609,-0.26458 0.2802,-0.26458 0.15411,0 0.20661,0.11906 0.11667,0.26458 -0.0899,0.14553 -0.21602,0.26459 -0.28019,0.26459 -0.0642,0 -0.11668,-0.11906 -0.11668,-0.26459 z M 11.745093,101.11551 c 0.0547,-0.47294 0.11282,-1.07528 0.12908,-1.338529 0.0488,-0.78936 0.47583,-0.26713 0.64771,0.792059 0.10482,0.64593 0.0485,1.05877 -0.16277,1.193 -0.58029,0.36869 -0.71507,0.22677 -0.61402,-0.64653 z m 7.74364,-22.171009 c -0.44071,-1.72211 -0.8773,-1.95542 -1.12299,-0.60014 -0.10062,0.55504 -0.39495,1.60449 -0.65407,2.33209 -0.97786,2.7459 -0.96975,2.7606 0.64297,1.16536 l 1.49669,-1.48047 z m -2.01272,0.89166 c 0.28224,-0.82033 0.51316,-1.70986 0.51316,-1.97674 0,-0.43015 -0.11877,-0.40291 -1.04616,0.23986 -1.36989,0.94947 -1.81167,2.50887 -0.9755,3.44341 0.63305,0.70754 0.70654,0.6244 1.5085,-1.70653 z m 3.14039,-0.69828 c 0.59244,-1.55825 0.63738,-5.7478 0.0615,-5.73295 -0.0964,0.002 -0.464,0.6714 -0.817,1.4865 -0.57677,1.33178 -0.61029,1.59987 -0.33073,2.64511 0.1711,0.63972 0.31109,1.39954 0.31109,1.6885 0,0.71807 0.48994,0.66298 0.77515,-0.0872 z m -3.04913,-2.22185 c 1.53648,-1.41156 2.64232,-3.34297 2.48944,-4.34794 -0.0754,-0.49584 -0.19578,-0.44736 -1.29283,0.52068 -0.66531,0.58708 -1.49874,1.49187 -1.85208,2.01064 -0.35333,0.51877 -0.85079,0.94403 -1.10545,0.94503 -0.36013,10e-4 -0.46302,0.22718 -0.46302,1.01604 0,0.99608 0.18803,1.44823 0.54326,1.30638 0.0987,-0.0394 0.85501,-0.69229 1.68068,-1.45083 z m 0.19691,-3.39727 c 0.92588,-0.95355 1.92081,-1.76835 2.21097,-1.81066 0.54294,-0.0792 1.71375,-2.369069 1.38128,-2.701539 -0.0921,-0.0921 -0.75449,0.26357 -1.47205,0.79031 -0.71756,0.526739 -1.40027,0.957709 -1.51714,0.957709 -0.46354,0 1.29571,-1.536799 2.37803,-2.077339 1.10309,-0.55091 1.41113,-0.985 1.8869,-2.65904 0.23957,-0.84295 -0.13347,-0.68993 -2.48156,1.01792 -1.01117,0.73546 -1.91115,1.33721 -1.99997,1.33721 -0.70431,0 0.65229,-1.14111 3.64782,-3.06836 1.01574,-0.65351 1.40029,-1.10907 1.77953,-2.10815 0.26608,-0.70097 0.44297,-1.315306 0.39309,-1.365192 -0.0499,-0.04989 -0.76138,0.455631 -1.5811,1.123369 -0.81972,0.667738 -1.4904,1.104753 -1.4904,0.971153 0,-0.263643 2.13977,-2.323782 3.11717,-3.00116 0.54102,-0.374951 1.30189,-2.076663 0.92852,-2.076663 -0.0829,0 -0.72942,0.356086 -1.43674,0.791304 -0.70732,0.435217 -1.28603,0.684562 -1.28603,0.5541 0,-0.130462 0.56555,-0.596761 1.25677,-1.03622 1.73508,-1.103113 2.18281,-1.546421 2.18281,-2.161268 0,-0.867997 -0.60149,-0.610655 -2.00985,0.859896 -2.43104,2.538379 -4.10505,5.111481 -4.86278,7.474481 -0.18665,0.58208 -0.4916,1.35599 -0.67767,1.71979 -1.32365,2.58796 -1.71011,3.721379 -1.71011,5.015369 0,1.16834 -0.10579,1.47397 -0.66146,1.91107 -0.3638,0.28616 -0.66146,0.63922 -0.66146,0.78458 0,0.14535 0.1871,0.0772 0.41577,-0.1515 0.55792,-0.55792 0.71244,-0.52358 0.51027,0.1134 -0.0924,0.29104 -0.11307,0.52916 -0.046,0.52916 0.0671,0 0.8795,-0.78018 1.80538,-1.73373 z m 4.92191,0.57444 c 1.12372,-1.49261 1.64025,-2.55219 1.70504,-3.49761 0.0289,-0.42188 0.57307,-1.635519 1.20925,-2.696969 1.09143,-1.82102 1.168645,-2.08226 1.368435,-4.630203 0.11646,-1.485164 0.12482,-2.75983 0.0186,-2.83259 -0.10623,-0.07276 -0.408165,-0.549011 -0.670945,-1.058334 l -0.47779,-0.926041 -0.37385,0.90942 c -0.33685,0.819427 -0.3194,1.075256 0.17629,2.585244 0.30258,0.921702 0.53695,2.000744 0.52083,2.397874 -0.0187,0.46116 -0.16673,0.1527 -0.40965,-0.853733 -0.60761,-2.517382 -0.89267,-2.61398 -1.59241,-0.539616 -0.52738,1.563439 -0.55588,1.858509 -0.23894,2.474419 0.4855,0.94352 0.95001,2.68368 0.71635,2.68368 -0.10361,0 -0.33168,-0.53578 -0.50683,-1.19062 -0.36339,-1.35871 -0.7469,-1.51712 -1.12088,-0.46302 -0.14199,0.40018 -0.38058,0.93981 -0.53021,1.19918 -0.1954,0.33871 -0.1581,0.80723 0.13241,1.66289 0.22245,0.65522 0.39304,1.693169 0.37909,2.306549 -0.0226,0.99191 -0.0604,0.91895 -0.34191,-0.65984 -0.36828,-2.065239 -0.59115,-2.421269 -0.85447,-1.364999 -0.10404,0.41735 -0.39514,1.220329 -0.64688,1.784399 -0.40442,0.90615 -0.4147,1.12853 -0.0883,1.90973 0.20319,0.48628 0.36943,1.1261 0.36943,1.42182 0,0.798 0.30035,0.6495 1.25734,-0.62163 z m 11.810525,0.23466 c 0.45859,-0.34717 0.47165,-0.48388 0.15705,-1.64523 -0.44838,-1.65528 -1.80582,-5.126409 -2.20256,-5.632219 -0.31717,-0.40438 -1.02172,-1.82263 -1.38009,-2.77813 -0.16906,-0.45073 -0.22967,-0.39191 -0.40896,0.39688 -0.49096,2.15994 -1.53904,5.815729 -1.81531,6.331959 -0.34275,0.64043 -0.16546,1.07637 0.43775,1.07637 0.4915,0 1.96073,0.85973 3.25089,1.90227 1.04168,0.84174 1.25835,0.8802 1.96123,0.3481 z m -6.92907,-3.9164 c 0.95121,-1.994709 1.86718,-4.546279 1.90832,-5.315879 0.1254,-2.345942 -0.8303,-5.632396 -1.45596,-5.006738 -0.13131,0.131313 -0.30586,1.185838 -0.38788,2.343388 -0.21512,3.03603 -0.54245,4.21025 -1.588555,5.69855 -0.51014,0.72578 -0.99613,1.66261 -1.07997,2.081829 -0.12961,0.64805 -0.059,0.77998 0.4715,0.88065 1.463965,0.27784 1.712875,0.19826 2.132545,-0.6818 z m 26.14037,-2.680749 c 0,-0.58642 -1.66473,-2.2107 -2.47391,-2.41379 -1.01885,-0.25571 -1.11691,-0.0217 -0.45855,1.09408 0.31499,0.53387 0.52133,1.02207 0.45853,1.08486 -0.15636,0.15637 -1.15824,-1.27998 -1.47627,-2.11645 -0.18835,-0.49541 -0.519,-0.73052 -1.20955,-0.86007 -0.52269,-0.0981 -1.02357,-0.10505 -1.11308,-0.0156 -0.18301,0.18301 0.41272,2.23578 0.79664,2.74505 0.13712,0.18191 0.62169,0.3391 1.07682,0.34933 0.45512,0.0102 1.06562,0.12092 1.35666,0.24599 0.91962,0.39517 3.04271,0.31601 3.04271,-0.11346 z m -5.89524,-0.26852 c 0.0318,-0.0234 -0.22827,-0.74656 -0.57802,-1.6071 -0.66661,-1.64017 -1.22488,-2.244264 -2.07401,-2.244264 -0.43331,0 -0.48273,0.127314 -0.33374,0.859894 0.46748,2.29869 0.38101,2.62777 -0.22891,0.87116 -0.64721,-1.863999 -1.18457,-2.524804 -2.05315,-2.524804 -0.26323,0 -0.4786,-0.178593 -0.4786,-0.396875 0,-0.281405 0.28868,-0.398211 0.99219,-0.401469 1.38446,-0.0064 4.31108,-0.657108 5.67176,-1.261042 l 1.14126,-0.506548 -0.99591,-0.424877 c -0.54774,-0.233683 -1.06296,-0.599642 -1.14493,-0.813243 -0.23958,-0.624348 -0.8941,-0.791807 -3.28312,-0.839992 -1.87111,-0.03774 -2.46764,-0.162632 -3.55057,-0.743365 -1.30884,-0.701885 -2.27026,-0.898445 -2.27026,-0.464151 0,0.207798 -1.26358,0.785216 -3.53449,1.615157 -0.62517,0.228483 -0.70051,0.343713 -0.43438,0.664386 0.17709,0.213379 0.74821,0.505648 1.26915,0.649487 0.79401,0.219238 1.33011,0.133227 3.31546,-0.531926 3.72887,-1.249286 3.25713,-0.76462 -1.00466,1.032186 -0.42821,0.180535 -0.25397,0.303807 0.97641,0.690809 l 1.49763,0.471061 2.01935,-0.840656 c 2.62142,-1.091304 3.22618,-0.862962 0.72418,0.273432 -1.05503,0.479186 -1.91823,1.022493 -1.91823,1.20735 0,0.184857 0.2427,0.95185 0.53934,1.70443 0.29664,0.75258 0.49781,1.49292 0.44705,1.64521 -0.0508,0.15228 -0.36301,-0.39014 -0.6939,-1.20539 -0.33088,-0.815238 -0.79994,-1.658 -1.04236,-1.872798 -0.49461,-0.438259 -2.72802,-1.244207 -2.99465,-1.08065 -0.0949,0.05825 -0.003,0.671059 0.20533,1.361806 0.20788,0.690747 0.3368,1.435032 0.28647,1.653972 -0.0503,0.21894 -0.30857,-0.35082 -0.57388,-1.266125 -0.45323,-1.563616 -1.3273,-2.701428 -2.07523,-2.701428 -0.15082,0 -0.48506,-0.190813 -0.74276,-0.424027 -0.2577,-0.233215 -0.57757,-0.382043 -0.71082,-0.330729 -0.27523,0.105988 0.6602,4.414299 1.06867,4.921939 0.15134,0.18809 0.85967,0.33073 1.6423,0.33073 1.5714,0 4.77034,0.90633 7.28932,2.06522 1.27064,0.58456 1.96057,0.7536 2.64584,0.64824 0.50984,-0.0784 0.95304,-0.16164 0.98487,-0.18501 z m 10.4767,0.0709 c 0.52334,-0.2817 0.40302,-0.3553 -1.27417,-0.77933 -1.01864,-0.25755 -2.23648,-0.47475 -2.7063,-0.48268 -0.81199,-0.0137 -0.83962,0.0177 -0.55877,0.63404 0.29988,0.65818 0.27798,0.65235 3.34861,0.89136 0.33699,0.0262 0.87277,-0.0923 1.19063,-0.26339 z m 1.34792,-1.24774 c -0.44962,-0.27417 -1.10447,-0.86294 -1.45521,-1.30837 -0.35074,-0.44542 -1.35209,-1.288843 -2.22521,-1.874266 -0.87313,-0.585422 -1.89204,-1.312062 -2.26426,-1.614755 -0.37222,-0.302693 -1.13924,-0.709345 -1.70449,-0.90367 -0.96659,-0.332297 -1.11856,-0.307165 -2.5543,0.422426 -0.83961,0.426659 -2.21571,0.904983 -3.05801,1.062941 -2.34508,0.439783 -2.41069,0.469733 -1.79602,0.819833 1.07384,0.611633 3.31548,0.383246 5.25522,-0.535423 0.9986,-0.472943 1.92837,-0.859896 2.06614,-0.859896 0.63208,0 -0.28337,0.672409 -1.99456,1.465013 l -1.87692,0.869377 0.97956,0.18376 c 0.87866,0.16484 2.90492,-0.27457 5.1531,-1.117482 0.40819,-0.153043 0.4244,-0.118732 0.12053,0.255085 -0.1931,0.237552 -0.93724,0.626597 -1.65365,0.864547 -0.7164,0.23796 -1.30255,0.48835 -1.30255,0.55644 0,0.43227 1.85922,0.81031 3.41315,0.694 1.47406,-0.11032 1.69211,-0.0742 1.399,0.2321 -0.29153,0.30459 -0.0581,0.43359 1.45521,0.80422 2.52821,0.61918 3.07769,0.61491 2.04327,-0.0159 z m -25.10093,-2.34378 c -0.098,-0.254666 -0.39586,-1.397041 -0.66192,-2.538617 -0.26606,-1.141575 -0.58558,-2.177162 -0.71004,-2.301303 -0.12445,-0.124141 -0.68763,-0.418326 -1.25151,-0.653743 l -1.02522,-0.428031 0.14986,0.612668 c 0.0824,0.336967 0.28354,1.386574 0.44693,2.332459 0.28243,1.635097 0.35812,1.760759 1.53682,2.551661 1.44877,0.972116 1.75914,1.059156 1.51508,0.424906 z m -3.58345,-3.642051 c -0.45012,-2.168218 -0.96213,-3.238649 -1.64831,-3.446025 -0.32989,-0.0997 -0.92802,-0.488581 -1.32916,-0.864179 -0.58547,-0.548189 -0.79424,-0.617103 -1.05833,-0.349339 -0.262565,0.26622 -0.244045,0.396746 0.0917,0.646485 0.2314,0.172104 0.62932,0.942195 0.88426,1.711312 0.32512,0.980807 0.86327,1.791868 1.80213,2.716038 0.73623,0.724704 1.39051,1.265728 1.45396,1.202276 0.0635,-0.06345 -0.0249,-0.790908 -0.19628,-1.616568 z m -3.55096,-1.51755 c -0.18854,-1.179055 -0.5825,-2.050299 -0.927125,-2.050299 -0.43742,0 -0.5234,0.788729 -0.17956,1.647162 0.19086,0.476509 0.423295,1.082285 0.516515,1.34617 0.31514,0.892133 0.76793,0.168624 0.59017,-0.943033 z m 8.48919,-1.036216 c 0.84969,-0.315379 1.66396,-0.687492 1.80948,-0.826916 0.34059,-0.326322 -3.32579,-0.05588 -4.71431,0.347742 -0.83446,0.242562 -0.95538,0.359632 -0.69521,0.673111 0.45017,0.542431 1.81407,0.468957 3.60004,-0.193937 z m -2.44261,-0.993361 1.34167,-0.17452 -1.32291,-0.429268 c -0.72761,-0.236098 -2.25307,-0.49053 -3.38994,-0.565404 -1.77046,-0.116605 -2.02204,-0.08194 -1.75354,0.241584 0.17242,0.207745 0.45437,0.377719 0.62656,0.377719 0.17219,0 0.71009,0.29291 1.19533,0.65091 0.71812,0.529812 0.98262,0.597198 1.42171,0.362203 0.29669,-0.158788 1.1432,-0.367239 1.88112,-0.463224 z"
       id="path826"
       inkscape:connector-curvature="0"
       sodipodi:nodetypes="cccsccccccccccccccccssccccscscccscssccccccsccsccccccccccsccccsccccccccsccsscccccccsccscsscccscsssccssscsccscccsccssccssccsscccccscccccsccscsccccscccscccccccscscccccccsscccccccscscccccccccccsscssccccccscscccsccccccssccsccccscsccssscssscscsscscscscccscsccsccccsccccccccccscccccccccscccccccsccsccssccsccccccccccccccsccsscccccscsccsscscccssccccccsscccsccccccccccccscscccscccsccsccccccscccccsccccccccccccsccccsccccccccsccc" />
    <text
       xml:space="preserve"
       style="font-style:normal;font-weight:normal;font-size:33.91239929px;line-height:1.25;font-family:sans-serif;letter-spacing:0px;word-spacing:0px;fill:#000000;fill-opacity:1;stroke:none;stroke-width:0.84780997"
       x="74.275963"
       y="95.370773"
       id="text830"><tspan
         sodipodi:role="line"
         id="tspan828"
         x="74.275963"
         y="95.370773"
         style="font-style:normal;font-variant:normal;font-weight:900;font-stretch:normal;font-family:Lato;-inkscape-font-specification:'Lato Heavy';stroke-width:0.84780997">Microngo</tspan></text>
    <text
       xml:space="preserve"
       style="font-style:normal;font-weight:300;font-size:10.58333302px;line-height:1.25;font-family:Lato;letter-spacing:0px;word-spacing:0px;fill:#000000;fill-opacity:1;stroke:none;stroke-width:0.26458332;-inkscape-font-specification:'Lato Light';font-stretch:normal;font-variant:normal;"
       x="76.1745"
       y="110.09476"
       id="text836"><tspan
         sodipodi:role="line"
         id="tspan834"
         x="76.1745"
         y="110.09476"
         style="font-style:normal;font-variant:normal;font-weight:300;font-stretch:normal;font-family:Lato;-inkscape-font-specification:'Lato Light';stroke-width:0.26458332;">a MongoDB toolkit</tspan></text>
  </g>
</svg>
